<?xml version="1.0" encoding="UTF-8"?><svg id="uuid-8e4f82eb-6641-4d07-be11-19032be0dd78" xmlns="http://www.w3.org/2000/svg" width="117.83mm" height="117.83mm" xmlns:xlink="http://www.w3.org/1999/xlink" viewBox="0 0 334.02 334.02"><defs><style>.uuid-4e286ebe-2727-4d03-8cd2-108d9cfac0ab{fill:#fdf4cb;}.uuid-8e48d317-1755-4bf2-ab12-271fc93200cf{fill:url(#uuid-55b533ae-3634-4363-ae01-ae61578f1e3d);}.uuid-2d767701-675f-4b4e-8149-a90d783cc084{fill:#921b1d;}.uuid-66955904-302d-4434-8b28-f6f327a7966b{fill:#0b2037;}.uuid-ece5b08b-28ad-415e-9274-2181c058c09c{fill:#396060;}.uuid-29232394-bdab-467b-8021-a810b79fe45e{fill:#8e1a1c;}.uuid-49e0b0da-5a67-425e-bc71-f31626ed4139{fill:#d86928;}.uuid-1abf407e-4dfb-4a34-9387-9be98bc4d5b9{fill:#87cbbd;}.uuid-763354d5-1969-4751-9d80-6843b4da83cd{fill:url(#uuid-aeb49403-d463-4d02-a9e9-be756c9deabf);}.uuid-3b89c6bd-e406-48a9-9b82-3c400daf68e2{fill:none;stroke:#0b2037;stroke-miterlimit:10;stroke-width:12px;}</style><radialGradient id="uuid-55b533ae-3634-4363-ae01-ae61578f1e3d" cx="77.42" cy="361.04" fx="-15.47" fy="291.44" r="116.07" gradientTransform="translate(116.53 -108.39) rotate(4.31)" gradientUnits="userSpaceOnUse"><stop offset=".29" stop-color="#e3daec"/><stop offset="1" stop-color="#bdcae7"/></radialGradient><radialGradient id="uuid-aeb49403-d463-4d02-a9e9-be756c9deabf" cx="93.81" cy="164.7" fx="93.81" fy="164.7" r="62.77" gradientTransform="translate(0 4.43) scale(1 .98)" gradientUnits="userSpaceOnUse"><stop offset="0" stop-color="#c4d0ea"/><stop offset="1" stop-color="#bdcae7"/></radialGradient></defs><g id="uuid-cb30179c-ba11-4539-810a-4be144346a7b"><path class="uuid-4e286ebe-2727-4d03-8cd2-108d9cfac0ab" d="m179.89,1.7C97.49-4.51,24.9,52.46,9.71,131.72l78.99-37.61,21.29,12.12,29.55,16.83,52.05-28.53,44.72,26.22c7.41-5.43,10.69-6.94,15.56-9.34,19.14-9.45,23.84-10.24,46.71-12.81,5.77-.89,11.35-1.28,16.67-1.11C292.05,44.82,241.3,6.33,179.89,1.7Z"/><polygon class="uuid-1abf407e-4dfb-4a34-9387-9be98bc4d5b9" points="11.14 199.33 13.96 217.65 137.18 185.23 90.01 169.5 56.2 172.87 16.99 188.19 11.14 199.33"/><path class="uuid-ece5b08b-28ad-415e-9274-2181c058c09c" d="m131.18,184.23l5.19,3.4-34.42,15.66-87.26,15.42s10.56-26.48,58.49-26.48,58-8,58-8Z"/><polygon class="uuid-2d767701-675f-4b4e-8149-a90d783cc084" points="162.36 135.57 189.92 155.7 230.22 126.64 201.28 111.43 162.36 135.57"/><polygon class="uuid-49e0b0da-5a67-425e-bc71-f31626ed4139" points="152.14 124.77 190.45 103.86 205.19 112.72 160.32 140.11 149.85 128.66 152.14 124.77"/><polygon class="uuid-29232394-bdab-467b-8021-a810b79fe45e" points="32.52 141.83 93.6 108.2 157.62 145.24 35.69 154.61 32.52 141.83"/><polygon class="uuid-49e0b0da-5a67-425e-bc71-f31626ed4139" points="13.65 139.41 10.52 160.58 109.2 111 87.9 98.87 13.65 139.41"/><path class="uuid-8e48d317-1755-4bf2-ab12-271fc93200cf" d="m285.18,201.23c-1.78,10.48,35.95,13.58,32.28,23.22-3.44,9.01-7.64,17.61-12.56,25.72-5.09,8.43-10.93,16.34-17.42,23.64-6.61,7.45-13.89,14.28-21.75,20.37-8.31,6.45-17.26,12.11-26.72,16.85-19.45,9.76-41.08,15.65-63.8,16.78-6.68.33-13.46.25-20.3-.27-12.89-.97-25.31-3.43-37.11-7.21h0c-14.29-4.58-27.66-11.08-39.83-19.17-12.79-8.5-24.26-18.79-34.08-30.45-9.67-11.48-17.75-24.3-23.92-38.11,0,0,6.54,1.64,20.68,1.47h.02c8.11-.1,18.7-.79,31.99-2.71,26.76-3.87,64.43-12.75,114.66-31.88,7.41-2.82,15.1-5.87,23.07-9.16,0,0,.8-3.1,74.8,10.9Z"/><path class="uuid-1abf407e-4dfb-4a34-9387-9be98bc4d5b9" d="m21.85,230.28s64.15-13.98,123.72-44.83c49.56-25.67,89.67-62.29,108.35-72.2,41.14-21.83,68.7-1.7,68.7-1.7l10.94,65.36-78.02-.21-128.48,41.47-62.1,12.37-43.1-.24Z"/><path class="uuid-ece5b08b-28ad-415e-9274-2181c058c09c" d="m158.18,205.23s98.85-101.64,170.61-69.16l-6.61,29.16-61.51,9.83-102.49,30.17Z"/><path class="uuid-3b89c6bd-e406-48a9-9b82-3c400daf68e2" d="m175.21,327.82c21.1-8.45,41.12-14.93,58.14-16.42,1.93-.17,3.82-.29,5.66-.37"/><path class="uuid-3b89c6bd-e406-48a9-9b82-3c400daf68e2" d="m132.77,213.4s-.03,0-.04.02c-6.29,2.2-12.64,4.63-19.04,7.31,0,0-.02,0-.03,0-.29.12-.57.24-.86.36"/><path class="uuid-3b89c6bd-e406-48a9-9b82-3c400daf68e2" d="m43.88,270.73c13.11-2.36,26.18-5.51,39.76-8.72,33.59-7.94,69.02-27.45,103.35-33.11,33.3-5.49,84.86-.59,117.92,21.27"/><path class="uuid-3b89c6bd-e406-48a9-9b82-3c400daf68e2" d="m77.96,301.18c51.99-17.9,109.56-42.93,138.36-43.21,32.59-.31,56.49,5.36,71.17,15.84"/><path class="uuid-3b89c6bd-e406-48a9-9b82-3c400daf68e2" d="m265.73,294.18c-11.64-6.56-27.52-9.91-48.53-8.07-27.89,2.43-63.77,18.27-99.4,34.23h0"/><polyline class="uuid-3b89c6bd-e406-48a9-9b82-3c400daf68e2" points="7.81 137.01 87.9 98.87 186.59 155.08"/><polyline class="uuid-3b89c6bd-e406-48a9-9b82-3c400daf68e2" points="138.74 127.82 190.8 99.29 235.71 125.63"/><circle class="uuid-66955904-302d-4434-8b28-f6f327a7966b" cx="196.18" cy="53.18" r="20"/><polygon class="uuid-1abf407e-4dfb-4a34-9387-9be98bc4d5b9" points="208.18 177.23 191.18 193.23 324.18 201.23 329.18 181.23 306.18 161.23 273.18 154.23 237.18 165.23 208.18 177.23"/><path class="uuid-ece5b08b-28ad-415e-9274-2181c058c09c" d="m193.18,190.23s69-25,131,8l-7.47,18.91-48.53-19.91-75-7Z"/><path class="uuid-3b89c6bd-e406-48a9-9b82-3c400daf68e2" d="m329.18,170.23s-75-44-157,30"/><path class="uuid-3b89c6bd-e406-48a9-9b82-3c400daf68e2" d="m19.94,232.62h0c20.72,2.98,52.11,2.52,93.66-11.87.01,0,.03,0,.04-.02s.02,0,.03,0c6.03-2.09,12.28-4.47,18.73-7.18l.31-.13s.03-.02.04-.02c90.31-37.85,144.43-19.02,191.41,3.84"/><path class="uuid-763354d5-1969-4751-9d80-6843b4da83cd" d="m179.39,155.33l-31.49-9.27-5.01-3.82s-.43.77-1.29,1.97l-1.82-.54-74.07,3.3-57.46,23.55,1.74,17.75,59.21-18.04,57,5,13.02,6.91,1.6.08,1.05-.78,9.33-2.44,28.2-23.68Z"/><path class="uuid-3b89c6bd-e406-48a9-9b82-3c400daf68e2" d="m16.41,224.04c29.39-4.05,84.78-14.48,126.82-38.91,5.67-3.28,11.1-6.84,16.2-10.66,6.44-4.84,13.17-9.72,20.11-14.55,2.33-1.62,4.68-3.23,7.05-4.83,15.81-10.68,32.5-20.9,49.12-29.44,28-14.41,55.78-24.1,78.74-23.37"/><path class="uuid-3b89c6bd-e406-48a9-9b82-3c400daf68e2" d="m8.08,192.96c40.1-26.73,85.1-29.73,135.15-7.84"/><path class="uuid-3b89c6bd-e406-48a9-9b82-3c400daf68e2" d="m179.58,159.93s-.03-.01-.04-.02c-56.84-29.16-125.39-18.36-173.54,7.93"/><path class="uuid-3b89c6bd-e406-48a9-9b82-3c400daf68e2" d="m327.55,179.1c-.26,3.41-.62,6.79-1.08,10.14-.23,1.67-.48,3.33-.77,4.99-1.78,10.48-4.57,20.58-8.24,30.23-3.44,9.01-7.64,17.61-12.56,25.72-5.09,8.43-10.93,16.34-17.42,23.64-6.61,7.45-13.89,14.28-21.75,20.37-8.31,6.45-17.26,12.11-26.72,16.85-19.45,9.76-41.08,15.65-63.8,16.78-6.68.33-13.46.25-20.3-.27-12.89-.97-25.31-3.43-37.11-7.21h0c-14.29-4.58-27.66-11.08-39.83-19.17-12.79-8.5-24.26-18.79-34.08-30.45-9.67-11.48-17.75-24.3-23.92-38.11h0c-1.25-2.81-2.44-5.68-3.54-8.58-3.77-9.94-6.59-20.34-8.33-31.07-1.34-8.2-2.04-16.6-2.08-25.13-.02-4.27.14-8.58.46-12.92.47-6.26,1.3-12.41,2.45-18.43C24.11,57.22,96.7.25,179.1,6.46c61.41,4.63,112.16,43.12,135.35,95.8,5.15,11.69,8.94,24.09,11.19,36.97,2.25,12.88,2.95,26.24,1.92,39.87Z"/></g></svg>